<svg xmlns="http://www.w3.org/2000/svg" aria-hidden="true" style="position:absolute;width:0;height:0;overflow:hidden">
    <defs>
        <svg aria-hidden="true" style="position: absolute; width: 0; height: 0; overflow: hidden;" version="1.1"
            xmlns="http://www.w3.org/2000/svg" xmlns:xlink="http://www.w3.org/1999/xlink">
            <defs>
                <symbol id="icon-burger-menu" viewBox="0 0 32 32">
                    <path
                        d="M3.2 6.4c-0.589 0-1.067 0.478-1.067 1.067s0.478 1.067 1.067 1.067h25.6c0.589 0 1.067-0.478 1.067-1.067s-0.478-1.067-1.067-1.067h-25.6zM2.133 16c0-0.589 0.478-1.067 1.067-1.067h25.6c0.589 0 1.067 0.478 1.067 1.067s-0.478 1.067-1.067 1.067h-25.6c-0.589 0-1.067-0.478-1.067-1.067zM2.133 24.533c0-0.589 0.478-1.067 1.067-1.067h25.6c0.589 0 1.067 0.478 1.067 1.067s-0.478 1.067-1.067 1.067h-25.6c-0.589 0-1.067-0.478-1.067-1.067z">
                    </path>
                </symbol>
                <svg aria-hidden="true" style="position: absolute; width: 0; height: 0; overflow: hidden;" version="1.1"
                    xmlns="http://www.w3.org/2000/svg" xmlns:xlink="http://www.w3.org/1999/xlink">
                    <defs>
                        <symbol id="icon-light" viewBox="0 0 45 32">
                            <path
                                d="M13.192 14.042v3.482h-11.223v-3.482h11.223zM13.058 5.47l-9.067 12.054h-3.094v-2.518l9.054-11.973h3.107v2.438zM11.571 3.033v3.482h-10.406v-3.482h10.406zM14.638 10.426v-0.281c0-1.063 0.152-2.040 0.455-2.933 0.304-0.902 0.75-1.683 1.339-2.344s1.317-1.174 2.183-1.54c0.866-0.375 1.866-0.563 3-0.563 1.143 0 2.147 0.188 3.013 0.563 0.875 0.366 1.607 0.879 2.196 1.54s1.036 1.442 1.339 2.344c0.304 0.893 0.455 1.871 0.455 2.933v0.281c0 1.054-0.152 2.031-0.455 2.933-0.304 0.893-0.75 1.674-1.339 2.344-0.589 0.661-1.317 1.174-2.183 1.54s-1.866 0.549-3 0.549c-1.134 0-2.138-0.183-3.013-0.549s-1.607-0.879-2.196-1.54c-0.589-0.67-1.036-1.451-1.339-2.344-0.304-0.902-0.455-1.879-0.455-2.933zM19.152 10.144v0.281c0 0.545 0.040 1.054 0.121 1.527s0.214 0.888 0.402 1.246c0.188 0.348 0.442 0.62 0.763 0.817s0.723 0.295 1.205 0.295c0.473 0 0.866-0.098 1.179-0.295 0.321-0.196 0.576-0.469 0.763-0.817 0.188-0.357 0.321-0.772 0.402-1.246s0.121-0.982 0.121-1.527v-0.281c0-0.527-0.040-1.022-0.121-1.487-0.080-0.473-0.214-0.888-0.402-1.246-0.188-0.366-0.442-0.652-0.763-0.857s-0.723-0.308-1.205-0.308c-0.473 0-0.871 0.103-1.192 0.308-0.312 0.205-0.562 0.491-0.75 0.857-0.188 0.357-0.321 0.772-0.402 1.246-0.080 0.464-0.121 0.96-0.121 1.487zM30.067 10.426v-0.281c0-1.063 0.152-2.040 0.455-2.933 0.304-0.902 0.75-1.683 1.339-2.344s1.317-1.174 2.183-1.54c0.866-0.375 1.866-0.563 3-0.563 1.143 0 2.147 0.188 3.013 0.563 0.875 0.366 1.607 0.879 2.196 1.54s1.036 1.442 1.339 2.344c0.304 0.893 0.455 1.871 0.455 2.933v0.281c0 1.054-0.152 2.031-0.455 2.933-0.304 0.893-0.75 1.674-1.339 2.344-0.589 0.661-1.317 1.174-2.183 1.54s-1.866 0.549-3 0.549c-1.134 0-2.138-0.183-3.013-0.549s-1.607-0.879-2.196-1.54c-0.589-0.67-1.036-1.451-1.339-2.344-0.304-0.902-0.455-1.879-0.455-2.933zM34.58 10.144v0.281c0 0.545 0.040 1.054 0.121 1.527s0.214 0.888 0.402 1.246c0.188 0.348 0.442 0.62 0.763 0.817s0.723 0.295 1.205 0.295c0.473 0 0.866-0.098 1.179-0.295 0.321-0.196 0.576-0.469 0.763-0.817 0.188-0.357 0.321-0.772 0.402-1.246s0.121-0.982 0.121-1.527v-0.281c0-0.527-0.040-1.022-0.121-1.487-0.080-0.473-0.214-0.888-0.402-1.246-0.188-0.366-0.442-0.652-0.763-0.857s-0.723-0.308-1.205-0.308c-0.473 0-0.871 0.103-1.192 0.308-0.312 0.205-0.562 0.491-0.75 0.857-0.188 0.357-0.321 0.772-0.402 1.246-0.080 0.464-0.121 0.96-0.121 1.487z">
                            </path>
                            <path
                                d="M1.117 26.927v-0.141c0-0.531 0.076-1.020 0.228-1.466 0.152-0.451 0.375-0.842 0.67-1.172s0.658-0.587 1.092-0.77c0.433-0.188 0.933-0.281 1.5-0.281 0.571 0 1.074 0.094 1.507 0.281 0.438 0.183 0.804 0.44 1.098 0.77s0.518 0.721 0.67 1.172c0.152 0.446 0.228 0.935 0.228 1.466v0.141c0 0.527-0.076 1.016-0.228 1.466-0.152 0.446-0.375 0.837-0.67 1.172-0.295 0.33-0.658 0.587-1.092 0.77s-0.933 0.275-1.5 0.275-1.069-0.091-1.507-0.275c-0.438-0.183-0.804-0.44-1.098-0.77-0.295-0.335-0.518-0.726-0.67-1.172-0.152-0.451-0.228-0.94-0.228-1.466zM3.373 26.786v0.141c0 0.272 0.020 0.527 0.060 0.763s0.107 0.444 0.201 0.623c0.094 0.174 0.221 0.31 0.382 0.409s0.362 0.147 0.603 0.147c0.237 0 0.433-0.049 0.589-0.147 0.161-0.098 0.288-0.234 0.382-0.409 0.094-0.178 0.161-0.386 0.201-0.623s0.060-0.491 0.060-0.763v-0.141c0-0.263-0.020-0.511-0.060-0.743-0.040-0.237-0.107-0.444-0.201-0.623-0.094-0.183-0.221-0.326-0.382-0.429s-0.362-0.154-0.603-0.154c-0.237 0-0.435 0.051-0.596 0.154-0.156 0.103-0.281 0.245-0.375 0.429-0.094 0.178-0.161 0.386-0.201 0.623-0.040 0.232-0.060 0.48-0.060 0.743zM12.426 24.778v5.699h-2.257v-7.246h2.116l0.141 1.547zM12.158 26.606l-0.529 0.013c0-0.554 0.067-1.047 0.201-1.48 0.134-0.438 0.324-0.808 0.569-1.112s0.538-0.534 0.877-0.69c0.344-0.161 0.725-0.241 1.145-0.241 0.335 0 0.641 0.049 0.917 0.147 0.281 0.098 0.522 0.257 0.723 0.475 0.205 0.219 0.362 0.509 0.469 0.871 0.112 0.357 0.167 0.799 0.167 1.326v4.56h-2.27v-4.567c0-0.29-0.040-0.511-0.121-0.663-0.080-0.156-0.196-0.263-0.348-0.321s-0.337-0.087-0.556-0.087c-0.232 0-0.429 0.045-0.589 0.134s-0.29 0.214-0.388 0.375c-0.094 0.156-0.163 0.341-0.208 0.556-0.040 0.214-0.060 0.449-0.060 0.703zM21.432 20.19v10.286h-2.263v-10.286h2.263zM26.306 23.231v7.246h-2.263v-7.246h2.263zM23.908 21.362c0-0.321 0.116-0.585 0.348-0.79s0.534-0.308 0.904-0.308c0.371 0 0.672 0.103 0.904 0.308s0.348 0.469 0.348 0.79-0.116 0.585-0.348 0.79c-0.232 0.205-0.533 0.308-0.904 0.308s-0.672-0.103-0.904-0.308-0.348-0.469-0.348-0.79zM31.012 24.778v5.699h-2.257v-7.246h2.116l0.141 1.547zM30.744 26.606l-0.529 0.013c0-0.554 0.067-1.047 0.201-1.48 0.134-0.438 0.324-0.808 0.569-1.112s0.538-0.534 0.877-0.69c0.344-0.161 0.725-0.241 1.145-0.241 0.335 0 0.641 0.049 0.917 0.147 0.281 0.098 0.522 0.257 0.723 0.475 0.205 0.219 0.362 0.509 0.469 0.871 0.112 0.357 0.167 0.799 0.167 1.326v4.56h-2.27v-4.567c0-0.29-0.040-0.511-0.121-0.663-0.080-0.156-0.196-0.263-0.348-0.321s-0.337-0.087-0.556-0.087c-0.232 0-0.429 0.045-0.589 0.134s-0.29 0.214-0.388 0.375c-0.094 0.156-0.163 0.341-0.208 0.556-0.040 0.214-0.060 0.449-0.060 0.703zM41.143 30.61c-0.589 0-1.116-0.091-1.58-0.275-0.464-0.188-0.857-0.444-1.179-0.77-0.317-0.326-0.56-0.701-0.73-1.125-0.165-0.424-0.248-0.873-0.248-1.346v-0.254c0-0.531 0.074-1.022 0.221-1.473 0.147-0.455 0.366-0.853 0.656-1.192s0.654-0.603 1.091-0.79c0.438-0.192 0.946-0.288 1.527-0.288 0.513 0 0.973 0.083 1.379 0.248s0.75 0.402 1.031 0.71c0.286 0.308 0.502 0.681 0.65 1.118 0.152 0.438 0.228 0.929 0.228 1.473v0.917h-5.92v-1.413h3.716v-0.174c0.005-0.241-0.038-0.446-0.127-0.616-0.085-0.17-0.21-0.299-0.375-0.388s-0.366-0.134-0.603-0.134c-0.245 0-0.449 0.054-0.609 0.161-0.156 0.107-0.279 0.254-0.368 0.442-0.085 0.183-0.145 0.395-0.181 0.636s-0.054 0.496-0.054 0.763v0.254c0 0.268 0.036 0.511 0.107 0.73 0.076 0.219 0.183 0.406 0.321 0.563 0.143 0.152 0.313 0.27 0.509 0.355 0.201 0.085 0.429 0.127 0.683 0.127 0.308 0 0.612-0.058 0.911-0.174s0.556-0.308 0.77-0.576l1.025 1.219c-0.147 0.21-0.357 0.413-0.629 0.609-0.268 0.196-0.589 0.357-0.964 0.482-0.375 0.121-0.795 0.181-1.259 0.181z">
                            </path>
                        </symbol>
                        <svg aria-hidden="true" style="position: absolute; width: 0; height: 0; overflow: hidden;"
                            version="1.1" xmlns="http://www.w3.org/2000/svg" xmlns:xlink="http://www.w3.org/1999/xlink">
                            <defs>
                                <symbol id="icon-back-btn" viewBox="0 0 32 32">
                                    <path
                                        d="M23.619 29.196l-13.416-13.196 13.416-13.196-2.073-2.042-15.451 15.246 15.451 15.23z">
                                    </path>
                                </symbol>
                                <symbol id="icon-next-btn" viewBox="0 0 32 32">
                                    <path
                                        d="M8.381 29.196l13.416-13.196-13.416-13.196 2.072-2.042 15.451 15.246-15.451 15.23z">
                                    </path>
                                </symbol>
                                <svg aria-hidden="true"
                                    style="position: absolute; width: 0; height: 0; overflow: hidden;" version="1.1"
                                    xmlns="http://www.w3.org/2000/svg" xmlns:xlink="http://www.w3.org/1999/xlink">
                                    <defs>
                                        <symbol id="icon-play" viewBox="0 0 32 32">
                                            <path
                                                d="M14.766 10.011c-1.771-1.046-3.766 0.376-3.766 2.273v7.432c0 1.897 1.995 3.319 3.766 2.273l6.294-3.716c1.698-1.002 1.698-3.544 0-4.546l-6.294-3.716zM13 12.284c0-0.265 0.128-0.45 0.279-0.544 0.146-0.091 0.31-0.101 0.47-0.007l6.294 3.716c0.177 0.104 0.29 0.304 0.29 0.551s-0.113 0.446-0.29 0.551l-6.294 3.716c-0.16 0.095-0.324 0.085-0.47-0.007-0.151-0.094-0.279-0.28-0.279-0.544v-7.432z">
                                            </path>
                                            <path
                                                d="M16 1.667c-7.916 0-14.333 6.417-14.333 14.333s6.417 14.333 14.333 14.333c7.916 0 14.333-6.417 14.333-14.333s-6.417-14.333-14.333-14.333zM3.667 16c0-6.811 5.522-12.333 12.333-12.333s12.333 5.522 12.333 12.333c0 6.811-5.522 12.333-12.333 12.333s-12.333-5.522-12.333-12.333z">
                                            </path>
                                        </symbol>
                                        <symbol id="icon-dollar" viewBox="0 0 32 32">
                                            <path
                                                d="M16 2c-7.731 0-14 6.269-14 14s6.269 14 14 14 14-6.269 14-14-6.269-14-14-14zM16 27.625c-6.419 0-11.625-5.206-11.625-11.625s5.206-11.625 11.625-11.625 11.625 5.206 11.625 11.625-5.206 11.625-11.625 11.625zM17.491 15.275l-0.794-0.184v-4.197c1.188 0.162 1.922 0.906 2.047 1.819 0.016 0.125 0.122 0.216 0.247 0.216h1.403c0.147 0 0.262-0.128 0.25-0.275-0.191-1.947-1.794-3.197-3.934-3.412v-1.022c0-0.137-0.113-0.25-0.25-0.25h-0.878c-0.137 0-0.25 0.113-0.25 0.25v1.031c-2.213 0.216-3.944 1.438-3.944 3.719 0 2.113 1.556 3.131 3.191 3.522l0.772 0.197v4.459c-1.381-0.184-2.156-0.922-2.316-1.916-0.019-0.119-0.125-0.206-0.247-0.206h-1.444c-0.147 0-0.262 0.125-0.25 0.272 0.141 1.719 1.444 3.3 4.225 3.503v0.981c0 0.137 0.113 0.25 0.25 0.25h0.887c0.137 0 0.25-0.113 0.25-0.253l-0.006-0.991c2.447-0.216 4.197-1.525 4.197-3.875-0.003-2.169-1.381-3.137-3.406-3.637zM15.347 14.769c-0.175-0.050-0.322-0.097-0.469-0.156-1.056-0.381-1.547-0.997-1.547-1.791 0-1.134 0.859-1.781 2.016-1.928v3.875zM16.697 21.156v-4.178c0.097 0.028 0.184 0.050 0.275 0.069 1.478 0.45 1.975 1.075 1.975 2.034 0 1.222-0.919 1.956-2.25 2.075z">
                                            </path>
                                        </symbol>
                                        <svg aria-hidden="true"
                                            style="position: absolute; width: 0; height: 0; overflow: hidden;"
                                            version="1.1" xmlns="http://www.w3.org/2000/svg"
                                            xmlns:xlink="http://www.w3.org/1999/xlink">
                                            <defs>
                                                <symbol id="icon-close-btn" viewBox="0 0 32 32">
                                                    <path
                                                        d="M16 3.667c-6.811 0-12.333 5.522-12.333 12.333s5.522 12.333 12.333 12.333c6.811 0 12.333-5.522 12.333-12.333s-5.522-12.333-12.333-12.333zM1.667 16c0-7.916 6.417-14.333 14.333-14.333s14.333 6.417 14.333 14.333c0 7.916-6.417 14.333-14.333 14.333s-14.333-6.417-14.333-14.333z">
                                                    </path>
                                                    <path
                                                        d="M11.293 11.293c0.391-0.391 1.024-0.391 1.414 0l8 8c0.391 0.391 0.391 1.024 0 1.414s-1.024 0.391-1.414 0l-8-8c-0.391-0.391-0.391-1.024 0-1.414z">
                                                    </path>
                                                    <path
                                                        d="M20.707 11.293c0.391 0.391 0.391 1.024 0 1.414l-8 8c-0.391 0.391-1.024 0.391-1.414 0s-0.391-1.024 0-1.414l8-8c0.391-0.391 1.024-0.391 1.414 0z">
                                                    </path>
                                                </symbol>
                                                <svg aria-hidden="true"
                                                    style="position: absolute; width: 0; height: 0; overflow: hidden;"
                                                    version="1.1" xmlns="http://www.w3.org/2000/svg"
                                                    xmlns:xlink="http://www.w3.org/1999/xlink">
                                                    <defs>
                                                        <symbol id="icon-instagram" viewBox="0 0 32 32">
                                                            <path
                                                                d="M31.969 9.408c-0.075-1.7-0.35-2.869-0.744-3.882-0.406-1.075-1.032-2.038-1.851-2.838-0.8-0.813-1.769-1.444-2.832-1.844-1.019-0.394-2.182-0.669-3.882-0.744-1.713-0.081-2.257-0.1-6.601-0.1s-4.888 0.019-6.595 0.094c-1.7 0.075-2.869 0.35-3.882 0.744-1.075 0.406-2.038 1.031-2.838 1.85-0.813 0.8-1.444 1.769-1.844 2.832-0.394 1.019-0.669 2.182-0.744 3.882-0.081 1.713-0.1 2.257-0.1 6.601s0.019 4.888 0.094 6.595c0.075 1.7 0.35 2.869 0.744 3.882 0.406 1.075 1.038 2.038 1.85 2.838 0.8 0.813 1.769 1.444 2.832 1.844 1.019 0.394 2.182 0.669 3.882 0.744 1.706 0.075 2.25 0.094 6.595 0.094s4.888-0.019 6.595-0.094c1.7-0.075 2.869-0.35 3.882-0.744 2.151-0.832 3.851-2.532 4.682-4.682 0.394-1.019 0.669-2.182 0.744-3.882 0.075-1.707 0.094-2.251 0.094-6.595s-0.006-4.888-0.081-6.595zM29.087 22.473c-0.069 1.563-0.331 2.407-0.55 2.969-0.538 1.394-1.644 2.5-3.038 3.038-0.563 0.219-1.413 0.481-2.969 0.55-1.688 0.075-2.194 0.094-6.464 0.094s-4.782-0.019-6.464-0.094c-1.563-0.069-2.407-0.331-2.969-0.55-0.694-0.256-1.325-0.663-1.838-1.194-0.531-0.519-0.938-1.144-1.194-1.838-0.219-0.563-0.481-1.413-0.55-2.969-0.075-1.688-0.094-2.194-0.094-6.464s0.019-4.782 0.094-6.464c0.069-1.563 0.331-2.407 0.55-2.969 0.256-0.694 0.663-1.325 1.2-1.838 0.519-0.531 1.144-0.938 1.838-1.194 0.563-0.219 1.413-0.481 2.969-0.55 1.688-0.075 2.194-0.094 6.464-0.094 4.276 0 4.782 0.019 6.464 0.094 1.563 0.069 2.407 0.331 2.969 0.55 0.694 0.256 1.325 0.662 1.838 1.194 0.531 0.519 0.938 1.144 1.194 1.838 0.219 0.563 0.481 1.413 0.55 2.969 0.075 1.688 0.094 2.194 0.094 6.464s-0.019 4.77-0.094 6.458z">
                                                            </path>
                                                            <path
                                                                d="M16.059 7.783c-4.538 0-8.22 3.682-8.22 8.22s3.682 8.22 8.22 8.22c4.539 0 8.22-3.682 8.22-8.22s-3.682-8.22-8.22-8.22zM16.059 21.335c-2.944 0-5.332-2.388-5.332-5.332s2.388-5.332 5.332-5.332c2.944 0 5.332 2.388 5.332 5.332s-2.388 5.332-5.332 5.332z">
                                                            </path>
                                                            <path
                                                                d="M26.524 7.458c0 1.060-0.859 1.919-1.919 1.919s-1.919-0.859-1.919-1.919c0-1.060 0.859-1.919 1.919-1.919s1.919 0.859 1.919 1.919z">
                                                            </path>
                                                        </symbol>
                                                        <symbol id="icon-twitter" viewBox="0 0 32 32">
                                                            <path
                                                                d="M32 6.078c-1.19 0.522-2.458 0.868-3.78 1.036 1.36-0.812 2.398-2.088 2.886-3.626-1.268 0.756-2.668 1.29-4.16 1.588-1.204-1.282-2.92-2.076-4.792-2.076-3.632 0-6.556 2.948-6.556 6.562 0 0.52 0.044 1.020 0.152 1.496-5.454-0.266-10.28-2.88-13.522-6.862-0.566 0.982-0.898 2.106-0.898 3.316 0 2.272 1.17 4.286 2.914 5.452-1.054-0.020-2.088-0.326-2.964-0.808 0 0.020 0 0.046 0 0.072 0 3.188 2.274 5.836 5.256 6.446-0.534 0.146-1.116 0.216-1.72 0.216-0.42 0-0.844-0.024-1.242-0.112 0.85 2.598 3.262 4.508 6.13 4.57-2.232 1.746-5.066 2.798-8.134 2.798-0.538 0-1.054-0.024-1.57-0.090 2.906 1.874 6.35 2.944 10.064 2.944 12.072 0 18.672-10 18.672-18.668 0-0.29-0.010-0.57-0.024-0.848 1.302-0.924 2.396-2.078 3.288-3.406z">
                                                            </path>
                                                        </symbol>
                                                        <symbol id="icon-facebook" viewBox="0 0 32 32">
                                                            <path
                                                                d="M21.329 5.313h2.921v-5.088c-0.504-0.069-2.237-0.225-4.256-0.225-4.212 0-7.097 2.649-7.097 7.519v4.481h-4.648v5.688h4.648v14.312h5.699v-14.311h4.46l0.708-5.688h-5.169v-3.919c0.001-1.644 0.444-2.769 2.735-2.769z">
                                                            </path>
                                                        </symbol>
                                                        <symbol id="icon-linkedin" viewBox="0 0 32 32">
                                                            <path
                                                                d="M31.992 32v-0.001h0.008v-11.736c0-5.741-1.236-10.164-7.948-10.164-3.227 0-5.392 1.771-6.276 3.449h-0.093v-2.913h-6.364v21.364h6.627v-10.579c0-2.785 0.528-5.479 3.977-5.479 3.399 0 3.449 3.179 3.449 5.657v10.401h6.62z">
                                                            </path>
                                                            <path d="M0.528 10.636h6.635v21.364h-6.635v-21.364z"></path>
                                                            <path
                                                                d="M3.843 0c-2.121 0-3.843 1.721-3.843 3.843s1.721 3.879 3.843 3.879c2.121 0 3.843-1.757 3.843-3.879-0.001-2.121-1.723-3.843-3.843-3.843v0z">
                                                            </path>
                                                        </symbol>
                                                    </defs>
                                                </svg>