<svg xmlns="http://www.w3.org/2000/svg" aria-hidden="true" style="position:absolute;width:0;height:0;overflow:hidden">
    <defs>
        <svg aria-hidden="true" style="position: absolute; width: 0; height: 0; overflow: hidden;" version="1.1"
            xmlns="http://www.w3.org/2000/svg" xmlns:xlink="http://www.w3.org/1999/xlink">
            <defs>
                <symbol id="icon-burger-menu" viewBox="0 0 32 32">
                    <path
                        d="M3.2 6.4c-0.589 0-1.067 0.478-1.067 1.067s0.478 1.067 1.067 1.067h25.6c0.589 0 1.067-0.478 1.067-1.067s-0.478-1.067-1.067-1.067h-25.6zM2.133 16c0-0.589 0.478-1.067 1.067-1.067h25.6c0.589 0 1.067 0.478 1.067 1.067s-0.478 1.067-1.067 1.067h-25.6c-0.589 0-1.067-0.478-1.067-1.067zM2.133 24.533c0-0.589 0.478-1.067 1.067-1.067h25.6c0.589 0 1.067 0.478 1.067 1.067s-0.478 1.067-1.067 1.067h-25.6c-0.589 0-1.067-0.478-1.067-1.067z">
                    </path>
                </symbol>
                <svg aria-hidden="true" style="position: absolute; width: 0; height: 0; overflow: hidden;" version="1.1"
                    xmlns="http://www.w3.org/2000/svg" xmlns:xlink="http://www.w3.org/1999/xlink">
                    <defs>
                        <symbol id="icon-light" viewBox="0 0 45 32">
                            <path
                                d="M13.192 14.042v3.482h-11.223v-3.482h11.223zM13.058 5.47l-9.067 12.054h-3.094v-2.518l9.054-11.973h3.107v2.438zM11.571 3.033v3.482h-10.406v-3.482h10.406zM14.638 10.426v-0.281c0-1.063 0.152-2.040 0.455-2.933 0.304-0.902 0.75-1.683 1.339-2.344s1.317-1.174 2.183-1.54c0.866-0.375 1.866-0.563 3-0.563 1.143 0 2.147 0.188 3.013 0.563 0.875 0.366 1.607 0.879 2.196 1.54s1.036 1.442 1.339 2.344c0.304 0.893 0.455 1.871 0.455 2.933v0.281c0 1.054-0.152 2.031-0.455 2.933-0.304 0.893-0.75 1.674-1.339 2.344-0.589 0.661-1.317 1.174-2.183 1.54s-1.866 0.549-3 0.549c-1.134 0-2.138-0.183-3.013-0.549s-1.607-0.879-2.196-1.54c-0.589-0.67-1.036-1.451-1.339-2.344-0.304-0.902-0.455-1.879-0.455-2.933zM19.152 10.144v0.281c0 0.545 0.040 1.054 0.121 1.527s0.214 0.888 0.402 1.246c0.188 0.348 0.442 0.62 0.763 0.817s0.723 0.295 1.205 0.295c0.473 0 0.866-0.098 1.179-0.295 0.321-0.196 0.576-0.469 0.763-0.817 0.188-0.357 0.321-0.772 0.402-1.246s0.121-0.982 0.121-1.527v-0.281c0-0.527-0.040-1.022-0.121-1.487-0.080-0.473-0.214-0.888-0.402-1.246-0.188-0.366-0.442-0.652-0.763-0.857s-0.723-0.308-1.205-0.308c-0.473 0-0.871 0.103-1.192 0.308-0.312 0.205-0.562 0.491-0.75 0.857-0.188 0.357-0.321 0.772-0.402 1.246-0.080 0.464-0.121 0.96-0.121 1.487zM30.067 10.426v-0.281c0-1.063 0.152-2.040 0.455-2.933 0.304-0.902 0.75-1.683 1.339-2.344s1.317-1.174 2.183-1.54c0.866-0.375 1.866-0.563 3-0.563 1.143 0 2.147 0.188 3.013 0.563 0.875 0.366 1.607 0.879 2.196 1.54s1.036 1.442 1.339 2.344c0.304 0.893 0.455 1.871 0.455 2.933v0.281c0 1.054-0.152 2.031-0.455 2.933-0.304 0.893-0.75 1.674-1.339 2.344-0.589 0.661-1.317 1.174-2.183 1.54s-1.866 0.549-3 0.549c-1.134 0-2.138-0.183-3.013-0.549s-1.607-0.879-2.196-1.54c-0.589-0.67-1.036-1.451-1.339-2.344-0.304-0.902-0.455-1.879-0.455-2.933zM34.58 10.144v0.281c0 0.545 0.040 1.054 0.121 1.527s0.214 0.888 0.402 1.246c0.188 0.348 0.442 0.62 0.763 0.817s0.723 0.295 1.205 0.295c0.473 0 0.866-0.098 1.179-0.295 0.321-0.196 0.576-0.469 0.763-0.817 0.188-0.357 0.321-0.772 0.402-1.246s0.121-0.982 0.121-1.527v-0.281c0-0.527-0.040-1.022-0.121-1.487-0.080-0.473-0.214-0.888-0.402-1.246-0.188-0.366-0.442-0.652-0.763-0.857s-0.723-0.308-1.205-0.308c-0.473 0-0.871 0.103-1.192 0.308-0.312 0.205-0.562 0.491-0.75 0.857-0.188 0.357-0.321 0.772-0.402 1.246-0.080 0.464-0.121 0.96-0.121 1.487z">
                            </path>
                            <path
                                d="M1.117 26.927v-0.141c0-0.531 0.076-1.020 0.228-1.466 0.152-0.451 0.375-0.842 0.67-1.172s0.658-0.587 1.092-0.77c0.433-0.188 0.933-0.281 1.5-0.281 0.571 0 1.074 0.094 1.507 0.281 0.438 0.183 0.804 0.44 1.098 0.77s0.518 0.721 0.67 1.172c0.152 0.446 0.228 0.935 0.228 1.466v0.141c0 0.527-0.076 1.016-0.228 1.466-0.152 0.446-0.375 0.837-0.67 1.172-0.295 0.33-0.658 0.587-1.092 0.77s-0.933 0.275-1.5 0.275-1.069-0.091-1.507-0.275c-0.438-0.183-0.804-0.44-1.098-0.77-0.295-0.335-0.518-0.726-0.67-1.172-0.152-0.451-0.228-0.94-0.228-1.466zM3.373 26.786v0.141c0 0.272 0.020 0.527 0.060 0.763s0.107 0.444 0.201 0.623c0.094 0.174 0.221 0.31 0.382 0.409s0.362 0.147 0.603 0.147c0.237 0 0.433-0.049 0.589-0.147 0.161-0.098 0.288-0.234 0.382-0.409 0.094-0.178 0.161-0.386 0.201-0.623s0.060-0.491 0.060-0.763v-0.141c0-0.263-0.020-0.511-0.060-0.743-0.040-0.237-0.107-0.444-0.201-0.623-0.094-0.183-0.221-0.326-0.382-0.429s-0.362-0.154-0.603-0.154c-0.237 0-0.435 0.051-0.596 0.154-0.156 0.103-0.281 0.245-0.375 0.429-0.094 0.178-0.161 0.386-0.201 0.623-0.040 0.232-0.060 0.48-0.060 0.743zM12.426 24.778v5.699h-2.257v-7.246h2.116l0.141 1.547zM12.158 26.606l-0.529 0.013c0-0.554 0.067-1.047 0.201-1.48 0.134-0.438 0.324-0.808 0.569-1.112s0.538-0.534 0.877-0.69c0.344-0.161 0.725-0.241 1.145-0.241 0.335 0 0.641 0.049 0.917 0.147 0.281 0.098 0.522 0.257 0.723 0.475 0.205 0.219 0.362 0.509 0.469 0.871 0.112 0.357 0.167 0.799 0.167 1.326v4.56h-2.27v-4.567c0-0.29-0.040-0.511-0.121-0.663-0.080-0.156-0.196-0.263-0.348-0.321s-0.337-0.087-0.556-0.087c-0.232 0-0.429 0.045-0.589 0.134s-0.29 0.214-0.388 0.375c-0.094 0.156-0.163 0.341-0.208 0.556-0.040 0.214-0.060 0.449-0.060 0.703zM21.432 20.19v10.286h-2.263v-10.286h2.263zM26.306 23.231v7.246h-2.263v-7.246h2.263zM23.908 21.362c0-0.321 0.116-0.585 0.348-0.79s0.534-0.308 0.904-0.308c0.371 0 0.672 0.103 0.904 0.308s0.348 0.469 0.348 0.79-0.116 0.585-0.348 0.79c-0.232 0.205-0.533 0.308-0.904 0.308s-0.672-0.103-0.904-0.308-0.348-0.469-0.348-0.79zM31.012 24.778v5.699h-2.257v-7.246h2.116l0.141 1.547zM30.744 26.606l-0.529 0.013c0-0.554 0.067-1.047 0.201-1.48 0.134-0.438 0.324-0.808 0.569-1.112s0.538-0.534 0.877-0.69c0.344-0.161 0.725-0.241 1.145-0.241 0.335 0 0.641 0.049 0.917 0.147 0.281 0.098 0.522 0.257 0.723 0.475 0.205 0.219 0.362 0.509 0.469 0.871 0.112 0.357 0.167 0.799 0.167 1.326v4.56h-2.27v-4.567c0-0.29-0.040-0.511-0.121-0.663-0.080-0.156-0.196-0.263-0.348-0.321s-0.337-0.087-0.556-0.087c-0.232 0-0.429 0.045-0.589 0.134s-0.29 0.214-0.388 0.375c-0.094 0.156-0.163 0.341-0.208 0.556-0.040 0.214-0.060 0.449-0.060 0.703zM41.143 30.61c-0.589 0-1.116-0.091-1.58-0.275-0.464-0.188-0.857-0.444-1.179-0.77-0.317-0.326-0.56-0.701-0.73-1.125-0.165-0.424-0.248-0.873-0.248-1.346v-0.254c0-0.531 0.074-1.022 0.221-1.473 0.147-0.455 0.366-0.853 0.656-1.192s0.654-0.603 1.091-0.79c0.438-0.192 0.946-0.288 1.527-0.288 0.513 0 0.973 0.083 1.379 0.248s0.75 0.402 1.031 0.71c0.286 0.308 0.502 0.681 0.65 1.118 0.152 0.438 0.228 0.929 0.228 1.473v0.917h-5.92v-1.413h3.716v-0.174c0.005-0.241-0.038-0.446-0.127-0.616-0.085-0.17-0.21-0.299-0.375-0.388s-0.366-0.134-0.603-0.134c-0.245 0-0.449 0.054-0.609 0.161-0.156 0.107-0.279 0.254-0.368 0.442-0.085 0.183-0.145 0.395-0.181 0.636s-0.054 0.496-0.054 0.763v0.254c0 0.268 0.036 0.511 0.107 0.73 0.076 0.219 0.183 0.406 0.321 0.563 0.143 0.152 0.313 0.27 0.509 0.355 0.201 0.085 0.429 0.127 0.683 0.127 0.308 0 0.612-0.058 0.911-0.174s0.556-0.308 0.77-0.576l1.025 1.219c-0.147 0.21-0.357 0.413-0.629 0.609-0.268 0.196-0.589 0.357-0.964 0.482-0.375 0.121-0.795 0.181-1.259 0.181z">
                            </path>
                        </symbol>
                        <svg aria-hidden="true" style="position: absolute; width: 0; height: 0; overflow: hidden;"
                            version="1.1" xmlns="http://www.w3.org/2000/svg" xmlns:xlink="http://www.w3.org/1999/xlink">
                            <defs>
                                <symbol id="icon-back-btn" viewBox="0 0 32 32">
                                    <path
                                        d="M23.619 29.196l-13.416-13.196 13.416-13.196-2.073-2.042-15.451 15.246 15.451 15.23z">
                                    </path>
                                </symbol>
                                <symbol id="icon-next-btn" viewBox="0 0 32 32">
                                    <path
                                        d="M8.381 29.196l13.416-13.196-13.416-13.196 2.072-2.042 15.451 15.246-15.451 15.23z">
                                    </path>
                                </symbol>
                                <svg aria-hidden="true"
                                    style="position: absolute; width: 0; height: 0; overflow: hidden;" version="1.1"
                                    xmlns="http://www.w3.org/2000/svg" xmlns:xlink="http://www.w3.org/1999/xlink">
                                    <defs>
                                        <symbol id="icon-play" viewBox="0 0 32 32">
                                            <path
                                                d="M14.766 10.011c-1.771-1.046-3.766 0.376-3.766 2.273v7.432c0 1.897 1.995 3.319 3.766 2.273l6.294-3.716c1.698-1.002 1.698-3.544 0-4.546l-6.294-3.716zM13 12.284c0-0.265 0.128-0.45 0.279-0.544 0.146-0.091 0.31-0.101 0.47-0.007l6.294 3.716c0.177 0.104 0.29 0.304 0.29 0.551s-0.113 0.446-0.29 0.551l-6.294 3.716c-0.16 0.095-0.324 0.085-0.47-0.007-0.151-0.094-0.279-0.28-0.279-0.544v-7.432z">
                                            </path>
                                            <path
                                                d="M16 1.667c-7.916 0-14.333 6.417-14.333 14.333s6.417 14.333 14.333 14.333c7.916 0 14.333-6.417 14.333-14.333s-6.417-14.333-14.333-14.333zM3.667 16c0-6.811 5.522-12.333 12.333-12.333s12.333 5.522 12.333 12.333c0 6.811-5.522 12.333-12.333 12.333s-12.333-5.522-12.333-12.333z">
                                            </path>
                                        </symbol>
                                        <symbol id="icon-dollar" viewBox="0 0 32 32">
                                            <path
                                                d="M16 2c-7.731 0-14 6.269-14 14s6.269 14 14 14 14-6.269 14-14-6.269-14-14-14zM16 27.625c-6.419 0-11.625-5.206-11.625-11.625s5.206-11.625 11.625-11.625 11.625 5.206 11.625 11.625-5.206 11.625-11.625 11.625zM17.491 15.275l-0.794-0.184v-4.197c1.188 0.162 1.922 0.906 2.047 1.819 0.016 0.125 0.122 0.216 0.247 0.216h1.403c0.147 0 0.262-0.128 0.25-0.275-0.191-1.947-1.794-3.197-3.934-3.412v-1.022c0-0.137-0.113-0.25-0.25-0.25h-0.878c-0.137 0-0.25 0.113-0.25 0.25v1.031c-2.213 0.216-3.944 1.438-3.944 3.719 0 2.113 1.556 3.131 3.191 3.522l0.772 0.197v4.459c-1.381-0.184-2.156-0.922-2.316-1.916-0.019-0.119-0.125-0.206-0.247-0.206h-1.444c-0.147 0-0.262 0.125-0.25 0.272 0.141 1.719 1.444 3.3 4.225 3.503v0.981c0 0.137 0.113 0.25 0.25 0.25h0.887c0.137 0 0.25-0.113 0.25-0.253l-0.006-0.991c2.447-0.216 4.197-1.525 4.197-3.875-0.003-2.169-1.381-3.137-3.406-3.637zM15.347 14.769c-0.175-0.050-0.322-0.097-0.469-0.156-1.056-0.381-1.547-0.997-1.547-1.791 0-1.134 0.859-1.781 2.016-1.928v3.875zM16.697 21.156v-4.178c0.097 0.028 0.184 0.050 0.275 0.069 1.478 0.45 1.975 1.075 1.975 2.034 0 1.222-0.919 1.956-2.25 2.075z">
                                            </path>
                                        </symbol>
                                        <svg aria-hidden="true"
                                            style="position: absolute; width: 0; height: 0; overflow: hidden;"
                                            version="1.1" xmlns="http://www.w3.org/2000/svg"
                                            xmlns:xlink="http://www.w3.org/1999/xlink">
                                            <defs>
                                                <symbol id="icon-close-btn" viewBox="0 0 32 32">
                                                    <path
                                                        d="M16 3.667c-6.811 0-12.333 5.522-12.333 12.333s5.522 12.333 12.333 12.333c6.811 0 12.333-5.522 12.333-12.333s-5.522-12.333-12.333-12.333zM1.667 16c0-7.916 6.417-14.333 14.333-14.333s14.333 6.417 14.333 14.333c0 7.916-6.417 14.333-14.333 14.333s-14.333-6.417-14.333-14.333z">
                                                    </path>
                                                    <path
                                                        d="M11.293 11.293c0.391-0.391 1.024-0.391 1.414 0l8 8c0.391 0.391 0.391 1.024 0 1.414s-1.024 0.391-1.414 0l-8-8c-0.391-0.391-0.391-1.024 0-1.414z">
                                                    </path>
                                                    <path
                                                        d="M20.707 11.293c0.391 0.391 0.391 1.024 0 1.414l-8 8c-0.391 0.391-1.024 0.391-1.414 0s-0.391-1.024 0-1.414l8-8c0.391-0.391 1.024-0.391 1.414 0z">
                                                    </path>
                                                </symbol>
                                                <svg aria-hidden="true"
                                                    style="position: absolute; width: 0; height: 0; overflow: hidden;"
                                                    version="1.1" xmlns="http://www.w3.org/2000/svg"
                                                    xmlns:xlink="http://www.w3.org/1999/xlink">
                                                    <defs>
                                                        <symbol id="icon-instagram" viewBox="0 0 32 32">
                                                            <path
                                                                d="M31.969 9.408c-0.075-1.7-0.35-2.869-0.744-3.882-0.406-1.075-1.032-2.038-1.851-2.838-0.8-0.813-1.769-1.444-2.832-1.844-1.019-0.394-2.182-0.669-3.882-0.744-1.713-0.081-2.257-0.1-6.601-0.1s-4.888 0.019-6.595 0.094c-1.7 0.075-2.869 0.35-3.882 0.744-1.075 0.406-2.038 1.031-2.838 1.85-0.813 0.8-1.444 1.769-1.844 2.832-0.394 1.019-0.669 2.182-0.744 3.882-0.081 1.713-0.1 2.257-0.1 6.601s0.019 4.888 0.094 6.595c0.075 1.7 0.35 2.869 0.744 3.882 0.406 1.075 1.038 2.038 1.85 2.838 0.8 0.813 1.769 1.444 2.832 1.844 1.019 0.394 2.182 0.669 3.882 0.744 1.706 0.075 2.25 0.094 6.595 0.094s4.888-0.019 6.595-0.094c1.7-0.075 2.869-0.35 3.882-0.744 2.151-0.832 3.851-2.532 4.682-4.682 0.394-1.019 0.669-2.182 0.744-3.882 0.075-1.707 0.094-2.251 0.094-6.595s-0.006-4.888-0.081-6.595zM29.087 22.473c-0.069 1.563-0.331 2.407-0.55 2.969-0.538 1.394-1.644 2.5-3.038 3.038-0.563 0.219-1.413 0.481-2.969 0.55-1.688 0.075-2.194 0.094-6.464 0.094s-4.782-0.019-6.464-0.094c-1.563-0.069-2.407-0.331-2.969-0.55-0.694-0.256-1.325-0.663-1.838-1.194-0.531-0.519-0.938-1.144-1.194-1.838-0.219-0.563-0.481-1.413-0.55-2.969-0.075-1.688-0.094-2.194-0.094-6.464s0.019-4.782 0.094-6.464c0.069-1.563 0.331-2.407 0.55-2.969 0.256-0.694 0.663-1.325 1.2-1.838 0.519-0.531 1.144-0.938 1.838-1.194 0.563-0.219 1.413-0.481 2.969-0.55 1.688-0.075 2.194-0.094 6.464-0.094 4.276 0 4.782 0.019 6.464 0.094 1.563 0.069 2.407 0.331 2.969 0.55 0.694 0.256 1.325 0.662 1.838 1.194 0.531 0.519 0.938 1.144 1.194 1.838 0.219 0.563 0.481 1.413 0.55 2.969 0.075 1.688 0.094 2.194 0.094 6.464s-0.019 4.77-0.094 6.458z">
                                                            </path>
                                                            <path
                                                                d="M16.059 7.783c-4.538 0-8.22 3.682-8.22 8.22s3.682 8.22 8.22 8.22c4.539 0 8.22-3.682 8.22-8.22s-3.682-8.22-8.22-8.22zM16.059 21.335c-2.944 0-5.332-2.388-5.332-5.332s2.388-5.332 5.332-5.332c2.944 0 5.332 2.388 5.332 5.332s-2.388 5.332-5.332 5.332z">
                                                            </path>
                                                            <path
                                                                d="M26.524 7.458c0 1.060-0.859 1.919-1.919 1.919s-1.919-0.859-1.919-1.919c0-1.060 0.859-1.919 1.919-1.919s1.919 0.859 1.919 1.919z">
                                                            </path>
                                                        </symbol>
                                                        <symbol id="icon-twitter" viewBox="0 0 32 32">
                                                            <path
                                                                d="M32 6.078c-1.19 0.522-2.458 0.868-3.78 1.036 1.36-0.812 2.398-2.088 2.886-3.626-1.268 0.756-2.668 1.29-4.16 1.588-1.204-1.282-2.92-2.076-4.792-2.076-3.632 0-6.556 2.948-6.556 6.562 0 0.52 0.044 1.020 0.152 1.496-5.454-0.266-10.28-2.88-13.522-6.862-0.566 0.982-0.898 2.106-0.898 3.316 0 2.272 1.17 4.286 2.914 5.452-1.054-0.020-2.088-0.326-2.964-0.808 0 0.020 0 0.046 0 0.072 0 3.188 2.274 5.836 5.256 6.446-0.534 0.146-1.116 0.216-1.72 0.216-0.42 0-0.844-0.024-1.242-0.112 0.85 2.598 3.262 4.508 6.13 4.57-2.232 1.746-5.066 2.798-8.134 2.798-0.538 0-1.054-0.024-1.57-0.090 2.906 1.874 6.35 2.944 10.064 2.944 12.072 0 18.672-10 18.672-18.668 0-0.29-0.010-0.57-0.024-0.848 1.302-0.924 2.396-2.078 3.288-3.406z">
                                                            </path>
                                                        </symbol>
                                                        <symbol id="icon-facebook" viewBox="0 0 32 32">
                                                            <path
                                                                d="M21.329 5.313h2.921v-5.088c-0.504-0.069-2.237-0.225-4.256-0.225-4.212 0-7.097 2.649-7.097 7.519v4.481h-4.648v5.688h4.648v14.312h5.699v-14.311h4.46l0.708-5.688h-5.169v-3.919c0.001-1.644 0.444-2.769 2.735-2.769z">
                                                            </path>
                                                        </symbol>
                                                        <symbol id="icon-linkedin" viewBox="0 0 32 32">
                                                            <path
                                                                d="M31.992 32v-0.001h0.008v-11.736c0-5.741-1.236-10.164-7.948-10.164-3.227 0-5.392 1.771-6.276 3.449h-0.093v-2.913h-6.364v21.364h6.627v-10.579c0-2.785 0.528-5.479 3.977-5.479 3.399 0 3.449 3.179 3.449 5.657v10.401h6.62z">
                                                            </path>
                                                            <path d="M0.528 10.636h6.635v21.364h-6.635v-21.364z"></path>
                                                            <path
                                                                d="M3.843 0c-2.121 0-3.843 1.721-3.843 3.843s1.721 3.879 3.843 3.879c2.121 0 3.843-1.757 3.843-3.879-0.001-2.121-1.723-3.843-3.843-3.843v0z">
                                                            </path>
                                                            <svg aria-hidden="true"
                                                                style="position: absolute; width: 0; height: 0; overflow: hidden;"
                                                                version="1.1" xmlns="http://www.w3.org/2000/svg"
                                                                xmlns:xlink="http://www.w3.org/1999/xlink">
                                                                <defs>
                                                                    <symbol id="icon-line" viewBox="0 0 784 32">
                                                                        <path fill="#bdbdbd"
                                                                            style="fill: var(--color1, #bdbdbd)"
                                                                            opacity="0.57" d="M0 9.6h784v16h-784v-16z">
                                                                        </path>
                                                                        <path fill="#333"
                                                                            style="fill: var(--color2, #333)"
                                                                            d="M0 0h256v32h-256v-32z"></path>
                                                                    </symbol>
                                                                    <svg aria-hidden="true"
                                                                        style="position: absolute; width: 0; height: 0; overflow: hidden;"
                                                                        version="1.1" xmlns="http://www.w3.org/2000/svg"
                                                                        xmlns:xlink="http://www.w3.org/1999/xlink">
                                                                        <defs>
                                                                            <symbol id="icon-about_one"
                                                                                viewBox="0 0 32 32">
                                                                                <path
                                                                                    d="M24.281 22.092l-4.602 2.364c-0.398-0.401-0.95-0.651-1.559-0.651h-3.171c-0.141 0-0.193-0.009-0.208-0.012-0.029-0.020-0.1-0.087-0.159-0.142l-0.030-0.029c-2.581-2.431-4.762-2.276-7.242-1.297-0.388 0.153-0.396 0.153-0.78 0.171l-0.699 0.001c-0.218-0.618-0.807-1.062-1.498-1.062h-2.333c-0.876 0-1.589 0.713-1.589 1.59v6.119c0 0.876 0.713 1.589 1.589 1.589h2.333c0.691 0 1.28-0.444 1.498-1.061h1.283c0.145 0.013 0.287 0.042 0.425 0.089l6.033 1.613c0.264 0.072 0.507 0.142 0.741 0.21 0.779 0.226 1.434 0.417 2.117 0.417 0.772 0 1.579-0.243 2.64-0.951 0.005-0.004 0.011-0.007 0.016-0.011l7.439-5.297c0.978-0.698 1.263-1.957 0.663-2.93-0.593-0.959-1.843-1.268-2.907-0.72zM4.672 29.144c0 0.184-0.155 0.339-0.339 0.339h-2.333c-0.184 0-0.339-0.155-0.339-0.339v-6.119c0-0.185 0.155-0.34 0.339-0.34h2.333c0.184 0 0.339 0.156 0.339 0.34v6.119zM25.8 24.723l-7.431 5.291c-1.512 1.007-2.156 0.82-3.707 0.369-0.24-0.070-0.488-0.142-0.765-0.217l-6.035-1.614c-0.243-0.075-0.492-0.119-0.748-0.131h-1.192v-4.674l0.665-0.003c0.476-0.022 0.623-0.036 1.182-0.257 2.15-0.849 3.809-0.95 5.927 1.045l0.030 0.028c0.365 0.343 0.591 0.494 1.224 0.494h3.171c0.523 0 0.948 0.425 0.948 0.948s-0.425 0.946-0.948 0.946h-5.141c-0.345 0-0.625 0.28-0.625 0.625s0.28 0.625 0.625 0.625h5.141c1.212 0 2.198-0.985 2.198-2.196 0-0.153-0.016-0.303-0.046-0.447l4.581-2.353c0.418-0.215 0.989-0.193 1.272 0.265 0.25 0.405 0.11 0.945-0.325 1.255z">
                                                                                </path>
                                                                                <path
                                                                                    d="M14.797 14.782c-0.677 0.33-1.144 1.024-1.144 1.826 0 0.884 0.569 1.637 1.36 1.914v0.931c0 1.14 0.926 2.067 2.065 2.067h2.769c1.14 0 2.067-0.927 2.067-2.067v-0.931c0.791-0.277 1.36-1.030 1.36-1.914 0-0.802-0.467-1.496-1.144-1.826 0.274-1.017 0.828-1.774 1.412-2.568 0.898-1.222 1.915-2.606 1.913-5.045 0-0.218-0.009-0.441-0.027-0.664-0.027-0.344-0.328-0.6-0.673-0.573s-0.601 0.328-0.573 0.673c0.015 0.19 0.023 0.38 0.023 0.566 0.002 2.029-0.81 3.134-1.67 4.304-0.652 0.888-1.324 1.803-1.644 3.104h-4.856c-0.32-1.301-0.992-2.216-1.644-3.104-0.86-1.17-1.672-2.275-1.67-4.304 0.003-2.163 0.93-3.53 1.707-4.295 1.070-1.054 2.536-1.646 4.026-1.625 0.006 0 0.012 0 0.018 0 1.214-0.018 2.432 0.377 3.426 1.112 0.277 0.205 0.669 0.147 0.874-0.131s0.147-0.669-0.131-0.874c-1.21-0.895-2.694-1.376-4.178-1.357-1.818-0.022-3.607 0.7-4.912 1.984-1.358 1.337-2.077 3.13-2.080 5.184-0.003 2.44 1.015 3.825 1.913 5.046 0.584 0.794 1.138 1.551 1.412 2.567zM20.665 19.453c0 0.451-0.366 0.817-0.817 0.817h-2.769c-0.45 0-0.815-0.367-0.815-0.817v-0.817h4.401v0.817zM15.683 15.828h5.562c0.43 0 0.78 0.35 0.78 0.78s-0.35 0.778-0.78 0.778h-5.562c-0.43 0-0.78-0.349-0.78-0.778s0.35-0.78 0.78-0.78z">
                                                                                </path>
                                                                                <path
                                                                                    d="M19.089 4.566c0-0.345-0.28-0.625-0.625-0.625s-0.625 0.28-0.625 0.625v3.876c0 0.345 0.28 0.625 0.625 0.625s0.625-0.28 0.625-0.625v-3.876z">
                                                                                </path>
                                                                                <path
                                                                                    d="M18.464 10.644c-0.345 0-0.625 0.28-0.625 0.625v0.004c0 0.345 0.28 0.623 0.625 0.623s0.625-0.282 0.625-0.627c0-0.345-0.28-0.625-0.625-0.625z">
                                                                                </path>
                                                                                <path
                                                                                    d="M30.963 7.165h-2.539c-0.345 0-0.625 0.28-0.625 0.625s0.28 0.625 0.625 0.625h2.539c0.345 0 0.625-0.28 0.625-0.625s-0.28-0.625-0.625-0.625z">
                                                                                </path>
                                                                                <path
                                                                                    d="M27.375 3.139c0.12 0 0.241-0.034 0.348-0.106l2.106-1.414c0.287-0.192 0.363-0.581 0.171-0.867s-0.581-0.363-0.867-0.171l-2.106 1.414c-0.287 0.192-0.363 0.581-0.171 0.867 0.121 0.18 0.318 0.277 0.52 0.277z">
                                                                                </path>
                                                                                <path
                                                                                    d="M29.829 13.96l-2.106-1.414c-0.287-0.192-0.675-0.116-0.867 0.171s-0.116 0.675 0.171 0.867l2.106 1.414c0.107 0.072 0.228 0.106 0.348 0.106 0.201 0 0.399-0.097 0.52-0.277 0.192-0.287 0.116-0.675-0.171-0.867z">
                                                                                </path>
                                                                                <path
                                                                                    d="M5.964 8.415h2.537c0.345 0 0.625-0.28 0.625-0.625s-0.28-0.625-0.625-0.625h-2.537c-0.345 0-0.625 0.28-0.625 0.625s0.28 0.625 0.625 0.625z">
                                                                                </path>
                                                                                <path
                                                                                    d="M7.099 1.619l2.106 1.414c0.107 0.072 0.228 0.106 0.348 0.106 0.201 0 0.399-0.097 0.52-0.277 0.192-0.287 0.116-0.675-0.171-0.867l-2.106-1.414c-0.287-0.192-0.675-0.116-0.867 0.171s-0.116 0.675 0.171 0.867z">
                                                                                </path>
                                                                                <path
                                                                                    d="M9.205 12.547l-2.106 1.414c-0.287 0.192-0.363 0.581-0.171 0.867 0.121 0.18 0.318 0.277 0.52 0.277 0.12 0 0.241-0.034 0.348-0.106l2.106-1.414c0.287-0.192 0.363-0.581 0.171-0.867s-0.581-0.363-0.867-0.171z">
                                                                                </path>
                                                                                <path
                                                                                    d="M23.59 4.327c0.122 0.122 0.281 0.183 0.441 0.183s0.32-0.061 0.442-0.184c0.244-0.244 0.243-0.641-0.001-0.885s-0.64-0.244-0.884 0c-0.244 0.244-0.244 0.64 0 0.884l0.002 0.002z">
                                                                                </path>
                                                                            </symbol>
                                                                            <symbol id="icon-about_two"
                                                                                viewBox="0 0 32 32">
                                                                                <path
                                                                                    d="M30.132 10.318l1.844-5.534c0.048-0.143 0.024-0.3-0.064-0.422s-0.23-0.195-0.38-0.195h-6.224v-1.804c0-0.259-0.21-0.469-0.469-0.469h-5.975c-0.259 0-0.469 0.21-0.469 0.469s0.21 0.469 0.469 0.469h5.506v10.427h-9.795v-10.427h2.102c0.259 0 0.469-0.21 0.469-0.469s-0.21-0.469-0.469-0.469h-2.102v-0.794c0-0.607-0.493-1.1-1.1-1.1h-1.263c-0.607 0-1.1 0.493-1.1 1.1v14.368h-1.211c-0.647 0-1.288 0.215-1.804 0.604l-0.513 0.387c-0.207 0.156-0.248 0.45-0.092 0.656 0.092 0.122 0.232 0.186 0.374 0.186 0.098 0 0.198-0.031 0.282-0.095l0.512-0.387c0.354-0.267 0.794-0.415 1.239-0.415h1.211v1.588h-1.047c-0.259 0-0.469 0.21-0.469 0.469s0.21 0.469 0.469 0.469h6.536c0.439 0 0.808 0.343 0.823 0.764 0.008 0.218-0.071 0.424-0.222 0.581s-0.354 0.243-0.572 0.243c-0.001 0-0.002 0-0.004 0h-5.047c-0.259 0-0.469 0.21-0.469 0.469s0.21 0.469 0.469 0.469l6.283-0c0.439 0 0.809 0.343 0.824 0.764 0.008 0.218-0.071 0.425-0.223 0.581s-0.354 0.243-0.571 0.243h-6.313c-0.259 0-0.469 0.21-0.469 0.469s0.21 0.469 0.469 0.469h5.051c0.217 0 0.42 0.086 0.571 0.243s0.23 0.363 0.222 0.581c-0.015 0.422-0.384 0.765-0.823 0.765l-5.021-0c-0.259 0-0.469 0.21-0.469 0.469s0.21 0.469 0.469 0.469h3.783c0.002 0 0.004 0 0.005 0 0.217 0 0.42 0.086 0.572 0.243s0.23 0.363 0.222 0.581c-0.015 0.421-0.385 0.764-0.824 0.764l-12.38 0.005v-8.6h1.152c0.647 0 1.288-0.215 1.804-0.605l0.491-0.371c0.207-0.156 0.247-0.45 0.091-0.657s-0.45-0.248-0.657-0.092l-0.491 0.371c-0.354 0.268-0.794 0.415-1.239 0.415l-3.641-0c-0.259 0-0.469 0.21-0.469 0.469v9.539c0 0.259 0.21 0.469 0.469 0.469l10.643-0.004v1.866c0 0.607 0.494 1.1 1.1 1.1h1.263c0.607 0 1.1-0.494 1.1-1.1v-1.867l0.763-0c0.938 0 1.728-0.748 1.761-1.668 0.011-0.313-0.060-0.615-0.204-0.882 0.803-0.137 1.437-0.822 1.466-1.644 0.011-0.311-0.059-0.611-0.201-0.877 0.372-0.057 0.712-0.233 0.979-0.509 0.329-0.341 0.502-0.79 0.485-1.265-0.030-0.837-0.652-1.512-1.466-1.645 0.143-0.267 0.214-0.568 0.203-0.88-0.033-0.935-0.807-1.668-1.76-1.668h-2.027v-3.798h3.23v1.804c0.005 0.221 0.169 0.468 0.47 0.469h7.703c0.259 0 0.469-0.21 0.469-0.469s-0.21-0.469-0.469-0.469h-4.917l3.932-1.361c0.167-0.058 0.326-0.235 0.315-0.459v-8.607h5.573l-1.688 5.066c-0.032 0.096-0.032 0.2 0 0.296l1.688 5.065h-2.717c-0.259 0-0.469 0.21-0.469 0.469s0.21 0.469 0.469 0.469h3.367c0.151 0 0.292-0.072 0.38-0.195s0.112-0.279 0.064-0.422l-1.844-5.534zM0.938 19.499h1.083v8.601h-1.083v-8.601zM13.637 30.9c0 0.090-0.073 0.163-0.163 0.163h-1.263c-0.090 0-0.163-0.073-0.163-0.163v-1.866l1.588-0.001v1.867zM12.049 17.994v-16.894c0-0.090 0.073-0.163 0.163-0.163h1.263c0.090 0 0.163 0.073 0.163 0.163v16.894h-1.588zM22.053 14.196l-3.311 1.146v-1.146h3.311z">
                                                                                </path>
                                                                            </symbol>
                                                                            <symbol id="icon-about_thre"
                                                                                viewBox="0 0 32 32">
                                                                                <path
                                                                                    d="M25.176 6.625c0-2.175-1.423-5.625-5.242-5.625-1.569 0-2.889 0.74-3.934 2.202-1.046-1.462-2.365-2.202-3.934-2.202-3.819 0-5.242 3.45-5.242 5.625 0 3.75 2.926 6.095 6.924 9.514 0.587 0.502 1.195 1.022 1.843 1.584 0.117 0.102 0.263 0.153 0.41 0.153s0.292-0.051 0.41-0.153c0.648-0.562 1.255-1.081 1.843-1.584 4.185-3.579 6.924-5.843 6.924-9.514zM16 16.424c-0.499-0.431-0.976-0.838-1.44-1.235-4.183-3.576-6.487-5.547-6.487-8.563 0-2.046 1.339-4.375 3.992-4.375 1.385 0 2.492 0.795 3.386 2.43 0.11 0.201 0.32 0.325 0.548 0.325s0.439-0.125 0.548-0.325c0.894-1.635 2.001-2.43 3.386-2.43 2.616 0 3.992 2.294 3.992 4.375 0 3.017-2.304 4.987-6.487 8.564-0.464 0.397-0.94 0.804-1.44 1.235z">
                                                                                </path>
                                                                                <path
                                                                                    d="M4.491 25.507l3.009 1.504v3.364c0 0.345 0.28 0.625 0.625 0.625h6.625c0.345 0 0.625-0.28 0.625-0.625v-8.159c0-1.915-1.436-3.503-3.337-3.693l-0.051-0.006c-1.1-0.11-3.047-0.862-3.816-1.631l-1.404-1.403c-0.472-0.472-1.1-0.732-1.768-0.732v-5c0-1.378-1.122-2.5-2.5-2.5s-2.5 1.122-2.5 2.5v8.49c0 3.076 1.737 5.89 4.491 7.267zM1.25 9.75c0-0.689 0.561-1.25 1.25-1.25s1.25 0.561 1.25 1.25v5.335c-0.762 0.441-1.25 1.262-1.25 2.165 0 0.668 0.26 1.295 0.732 1.768l3.201 3.201c0.244 0.244 0.64 0.244 0.884 0s0.244-0.64 0-0.884l-3.201-3.201c-0.236-0.236-0.366-0.55-0.366-0.884 0-0.529 0.335-1.003 0.833-1.179 0 0 0-0 0-0s0-0 0-0c0.431-0.153 0.943-0.062 1.3 0.296l1.404 1.403c1.449 1.449 4.615 1.994 4.622 1.996 1.263 0.127 2.216 1.18 2.216 2.45v7.534h-5.375v-3.125c0-0.237-0.134-0.453-0.345-0.559l-3.354-1.677c-2.344-1.172-3.8-3.528-3.8-6.149v-8.49z">
                                                                                </path>
                                                                                <path
                                                                                    d="M28.688 24.625c0.345 0 0.625-0.28 0.625-0.625s-0.28-0.625-0.625-0.625c-0.345 0-0.625 0.28-0.625 0.625s0.28 0.625 0.625 0.625z">
                                                                                </path>
                                                                                <path
                                                                                    d="M29.5 7.25c-1.379 0-2.5 1.122-2.5 2.5v5c-0.668 0-1.295 0.26-1.767 0.732l-1.404 1.403c-0.769 0.769-2.716 1.521-3.821 1.632l-0.041 0.004c-1.905 0.191-3.341 1.779-3.341 3.694v8.159c0 0.345 0.28 0.625 0.625 0.625h6.625c0.345 0 0.625-0.28 0.625-0.625v-3.364l2.046-1.023c0.309-0.154 0.434-0.53 0.28-0.838s-0.53-0.434-0.839-0.28l-2.391 1.195c-0.212 0.106-0.346 0.322-0.346 0.559v3.125h-5.375v-7.534c0-1.27 0.953-2.323 2.221-2.451l0.041-0.004c1.356-0.136 3.6-1.016 4.575-1.991l1.404-1.403c0.358-0.358 0.871-0.448 1.3-0.295 0 0 0 0 0 0s0 0 0 0c0.499 0.176 0.833 0.65 0.833 1.179 0 0.334-0.13 0.647-0.366 0.884l-3.201 3.201c-0.244 0.244-0.244 0.64 0 0.884s0.64 0.244 0.884-0l3.201-3.201c0.472-0.472 0.732-1.1 0.732-1.768 0-0.902-0.488-1.724-1.25-2.165v-5.335c0-0.689 0.561-1.25 1.25-1.25s1.25 0.561 1.25 1.25v8.49c0 1.143-0.289 2.279-0.835 3.283-0.165 0.303-0.053 0.683 0.251 0.848s0.683 0.053 0.848-0.251c0.645-1.187 0.986-2.529 0.986-3.88v-8.49c0-1.378-1.121-2.5-2.5-2.5z">
                                                                                </path>
                                                                            </symbol>
                                                                            <symbol id="icon-line_pets"
                                                                                viewBox="0 0 784 32">
                                                                                <path fill="#bdbdbd"
                                                                                    style="fill: var(--color1, #bdbdbd)"
                                                                                    opacity="0.57"
                                                                                    d="M0 9.6h784v16h-784v-16z"></path>
                                                                                <path fill="#333"
                                                                                    style="fill: var(--color2, #333)"
                                                                                    d="M0 0h96v32h-96v-32z"></path>
                                                                            </symbol>
                                                                            <svg aria-hidden="true"
                                                                                style="position: absolute; width: 0; height: 0; overflow: hidden;"
                                                                                version="1.1"
                                                                                xmlns="http://www.w3.org/2000/svg"
                                                                                xmlns:xlink="http://www.w3.org/1999/xlink">
                                                                                <defs>
                                                                                    <symbol id="icon-pay-1"
                                                                                        viewBox="0 0 39 32">
                                                                                        <path
                                                                                            d="M37.282 9.677h-3.766l-1.057-7.976c-0.151-1.071-1.135-1.822-2.208-1.685l-28.546 3.783c-0.517 0.069-0.986 0.342-1.302 0.757-0.317 0.413-0.456 0.935-0.385 1.451l2.409 18.165c0.128 0.978 0.962 1.71 1.949 1.709 0.085-0 0.169-0.006 0.253-0.017l1.891-0.249v4.353c0 1.084 0.879 1.964 1.964 1.964h28.799c1.084 0 1.964-0.879 1.964-1.964v-18.327c0-1.084-0.879-1.964-1.964-1.964zM32.195 9.677h-5.111l5.023-0.666 0.088 0.666zM1.314 5.831c-0.023-0.171 0.024-0.344 0.13-0.48 0.105-0.14 0.262-0.232 0.436-0.255l28.541-3.782c0.359-0.046 0.688 0.205 0.74 0.563l0.259 1.949-29.846 3.958-0.259-1.953zM6.519 24.295l-2.059 0.272c-0.358 0.048-0.687-0.204-0.735-0.563 0-0 0-0 0-0l-1.46-11.034 4.254-0.562v11.888zM6.605 11.076l-4.516 0.596-0.344-2.589 29.846-3.959 0.196 1.5 0.145 1.090-14.811 1.964h-8.64c-0.866 0.002-1.628 0.57-1.877 1.399zM37.936 29.968c0 0.361-0.293 0.655-0.655 0.655h-28.799c-0.361 0-0.655-0.293-0.655-0.655v-18.307c0-0.007 0.003-0.013 0.003-0.020 0-0.361 0.293-0.655 0.654-0.655h28.796c0.361 0 0.655 0.293 0.655 0.655v18.327z">
                                                                                        </path>
                                                                                        <path
                                                                                            d="M28.737 19.51c0.263-0.194 0.496-0.427 0.69-0.69 1.076 1.449 3.123 1.75 4.571 0.674s1.75-3.123 0.674-4.571c-0.617-0.831-1.592-1.32-2.627-1.319-1.034 0.003-2.006 0.496-2.618 1.329-1.073-1.454-3.122-1.763-4.576-0.69s-1.763 3.122-0.69 4.576c1.073 1.454 3.122 1.763 4.576 0.69zM32.045 14.913c1.084 0 1.964 0.879 1.964 1.964s-0.879 1.964-1.964 1.964c-1.084 0-1.964-0.879-1.964-1.964s0.879-1.964 1.964-1.964zM26.809 14.913c1.084 0 1.964 0.879 1.964 1.964s-0.879 1.964-1.964 1.964-1.964-0.879-1.964-1.964c0-1.084 0.879-1.964 1.964-1.964z">
                                                                                        </path>
                                                                                        <path
                                                                                            d="M11.755 14.259h-1.309v1.309h1.309v-1.309z">
                                                                                        </path>
                                                                                        <path
                                                                                            d="M20.919 14.259h-7.854v1.309h7.854v-1.309z">
                                                                                        </path>
                                                                                        <path
                                                                                            d="M20.919 16.877h-10.472v1.309h10.472v-1.309z">
                                                                                        </path>
                                                                                        <path
                                                                                            d="M34.664 22.768h-23.563c-0.361 0-0.655 0.293-0.655 0.654v3.927c0 0.361 0.293 0.654 0.655 0.654h23.563c0.361 0 0.655-0.293 0.655-0.654v-3.927c0-0.361-0.293-0.654-0.655-0.654zM34.009 26.695h-22.254v-2.618h22.254v2.618z">
                                                                                        </path>
                                                                                    </symbol>
                                                                                    <symbol id="icon-pay-2"
                                                                                        viewBox="0 0 32 32">
                                                                                        <path
                                                                                            d="M4.375 20.375c-0.345 0-0.625 0.28-0.625 0.625s0.28 0.625 0.625 0.625c0.345 0 0.625-0.28 0.625-0.625s-0.28-0.625-0.625-0.625z">
                                                                                        </path>
                                                                                        <path
                                                                                            d="M30.75 28.876v-23.253c0.779-0.586 1.25-1.513 1.25-2.499 0-1.723-1.402-3.125-3.125-3.125s-3.125 1.402-3.125 3.125c0 0.508 0.126 1 0.354 1.439-3.094-1.384-6.547-2.11-10.104-2.11s-7.010 0.725-10.104 2.11c0.228-0.438 0.354-0.93 0.354-1.439 0-1.723-1.402-3.125-3.125-3.125s-3.125 1.402-3.125 3.125c0 0.986 0.471 1.913 1.25 2.499v23.253c-0.797 0.599-1.25 1.515-1.25 2.499 0 0.345 0.28 0.619 0.625 0.619h4.995c0.002 0 0.003 0 0.005 0 0.27 0 0.512-0.17 0.595-0.428l0-0.001c0.001-0.002 0.001-0.004 0.002-0.006l5.976-18.679c2.495-0.553 5.108-0.553 7.604 0l5.976 18.679c0.001 0.002 0.001 0.004 0.002 0.006l0 0.001c0.081 0.254 0.321 0.429 0.595 0.429 0.002 0 0.003-0 0.005-0h4.996c0.345 0 0.625-0.274 0.625-0.619 0-0.983-0.453-1.899-1.25-2.499zM3.125 1.25c1.034 0 1.875 0.841 1.875 1.875 0 0.667-0.359 1.29-0.937 1.624-0.284 0.164-0.608 0.251-0.938 0.251s-0.653-0.087-0.937-0.25c-0.578-0.335-0.938-0.957-0.938-1.625 0-1.034 0.841-1.875 1.875-1.875zM1.356 30.75c0.259-0.733 0.958-1.25 1.769-1.25 0.822 0 1.514 0.529 1.769 1.25h-3.537zM5.585 29.449c-0.173-0.22-0.356-0.401-0.585-0.573v-5.376c0-0.345-0.28-0.625-0.625-0.625s-0.625 0.28-0.625 0.625v4.814c-0.205-0.042-0.414-0.064-0.625-0.064s-0.42 0.022-0.625 0.064v-22.127c0.205 0.042 0.414 0.064 0.625 0.064s0.42-0.022 0.625-0.064v12.314c0 0.345 0.28 0.625 0.625 0.625s0.625-0.28 0.625-0.625v-2.058c1.656-1.421 3.627-2.506 5.763-3.179l-5.178 16.186zM27 28.876c-0.233 0.175-0.416 0.357-0.585 0.573l-5.178-16.186c2.136 0.673 4.107 1.758 5.763 3.179v12.434zM27 10.34c-0.526-0.303-1.064-0.584-1.611-0.838-0.313-0.146-0.685-0.011-0.831 0.302s-0.011 0.685 0.302 0.831c0.732 0.342 1.45 0.733 2.139 1.163v3.040c-6.404-4.842-15.621-4.823-22-0v-3.040c0.689-0.431 1.407-0.822 2.139-1.163 0.313-0.146 0.448-0.518 0.302-0.831s-0.518-0.448-0.831-0.302c-0.546 0.255-1.085 0.536-1.611 0.838v-3.945c6.628-3.562 15.372-3.562 22 0v3.945zM28.875 1.25c1.034 0 1.875 0.841 1.875 1.875 0 0.667-0.359 1.29-0.937 1.624-0.284 0.164-0.608 0.251-0.938 0.251s-0.653-0.087-0.937-0.25c-0.579-0.335-0.938-0.957-0.938-1.625 0-1.034 0.841-1.875 1.875-1.875zM29.5 6.186v22.127c-0.205-0.042-0.414-0.064-0.625-0.064s-0.42 0.022-0.625 0.064v-22.127c0.205 0.042 0.414 0.064 0.625 0.064s0.42-0.022 0.625-0.064zM27.106 30.75c0.259-0.734 0.96-1.25 1.769-1.25 0.822 0 1.514 0.53 1.769 1.25h-3.537z">
                                                                                        </path>
                                                                                        <path
                                                                                            d="M12.25 8.75h-0.991l1.433-1.433c0.179-0.179 0.232-0.448 0.135-0.681s-0.325-0.386-0.577-0.386h-2.5c-0.345 0-0.625 0.28-0.625 0.625s0.28 0.625 0.625 0.625h0.991l-1.433 1.433c-0.179 0.179-0.232 0.448-0.135 0.681s0.325 0.386 0.577 0.386h2.5c0.345 0 0.625-0.28 0.625-0.625s-0.28-0.625-0.625-0.625z">
                                                                                        </path>
                                                                                        <path
                                                                                            d="M14.125 8.125c0 1.034 0.841 1.875 1.875 1.875s1.875-0.841 1.875-1.875c0-1.034-0.841-1.875-1.875-1.875s-1.875 0.841-1.875 1.875zM16 7.5c0.345 0 0.625 0.28 0.625 0.625s-0.28 0.625-0.625 0.625-0.625-0.28-0.625-0.625c0-0.345 0.28-0.625 0.625-0.625z">
                                                                                        </path>
                                                                                        <path
                                                                                            d="M21 10c1.034 0 1.875-0.841 1.875-1.875s-0.841-1.875-1.875-1.875c-1.034 0-1.875 0.841-1.875 1.875s0.841 1.875 1.875 1.875zM21 7.5c0.345 0 0.625 0.28 0.625 0.625s-0.28 0.625-0.625 0.625-0.625-0.28-0.625-0.625c0-0.345 0.28-0.625 0.625-0.625z">
                                                                                        </path>
                                                                                        <path
                                                                                            d="M16 15.375c-0.345 0-0.625 0.28-0.625 0.625v2.5c0 0.345 0.28 0.625 0.625 0.625s0.625-0.28 0.625-0.625v-2.5c0-0.345-0.28-0.625-0.625-0.625z">
                                                                                        </path>
                                                                                        <path
                                                                                            d="M16 21.625c-0.345 0-0.625 0.28-0.625 0.625v2.5c0 0.345 0.28 0.625 0.625 0.625s0.625-0.28 0.625-0.625v-2.5c0-0.345-0.28-0.625-0.625-0.625z">
                                                                                        </path>
                                                                                        <path
                                                                                            d="M16 28.25c-0.345 0-0.625 0.28-0.625 0.625v2.5c0 0.345 0.28 0.625 0.625 0.625s0.625-0.28 0.625-0.625v-2.5c0-0.345-0.28-0.625-0.625-0.625z">
                                                                                        </path>
                                                                                    </symbol>
                                                                                    <symbol id="icon-pay-3"
                                                                                        viewBox="0 0 32 32">
                                                                                        <path
                                                                                            d="M1.267 27.077c0 0.343-0.278 0.621-0.621 0.621s-0.621-0.278-0.621-0.621c0-0.343 0.278-0.621 0.621-0.621s0.621 0.278 0.621 0.621zM23.034 16.899c-0.866 0.651-1.896 0.994-2.98 0.994-0.349 0-0.672-0.116-0.932-0.311-0.26 0.195-0.583 0.311-0.932 0.311-1.125 0-2.187-0.368-3.072-1.065-0.269-0.212-0.316-0.603-0.103-0.873s0.603-0.316 0.872-0.103c0.663 0.522 1.459 0.799 2.303 0.799 0.171 0 0.311-0.139 0.311-0.311v-1.011c-1.071-0.277-1.864-1.251-1.864-2.407 0-0.685 0.557-1.243 1.243-1.243h2.485c0.685 0 1.243 0.557 1.243 1.243 0 1.156-0.793 2.13-1.864 2.407v1.011c0 0.171 0.139 0.311 0.311 0.311 0.812 0 1.584-0.258 2.233-0.745 0.274-0.206 0.664-0.151 0.87 0.124s0.151 0.664-0.124 0.87zM19.123 14.166c0.685 0 1.243-0.557 1.243-1.243h-2.485c0 0.685 0.557 1.243 1.243 1.243zM16.979 9.439l-0.919 1.591c-0.888 1.462-2.571 1.648-3.711 0.994-1.129-0.648-1.515-2.098-0.864-3.225l0.857-1.484c0.766-1.327 2.469-1.783 3.796-1.017 1.098 0.634 1.475 2.042 0.841 3.14zM14.984 10.409l0.381-0.659h-0.483c-0.827 0-0.827-1.243 0-1.243h1.139c0.091-0.435-0.096-0.905-0.505-1.132-0.752-0.418-1.67-0.174-2.099 0.562l-0.857 1.484c-0.308 0.534-0.123 1.216 0.409 1.528 0.85 0.497 1.742-0.020 2.014-0.54zM25.897 12.025c-1.224 0.696-2.87 0.413-3.711-0.994l-0.919-1.591c-0.634-1.098-0.256-2.506 0.841-3.14 1.327-0.766 3.030-0.31 3.796 1.017l0.857 1.484c0.651 1.127 0.268 2.582-0.864 3.225zM25.685 9.421l-0.857-1.484c-0.424-0.734-1.365-0.986-2.099-0.562-0.405 0.234-0.596 0.697-0.505 1.132h1.139c0.827 0 0.827 1.243 0 1.243h-0.483l0.381 0.659c0.31 0.562 1.174 1.013 2.014 0.54 0.537-0.303 0.718-0.994 0.409-1.528zM29.654 8.832c1.148 2.404 1.048 5.164-0.304 7.505-0.267 0.462-0.573 0.89-0.911 1.281 1.065 3.926 1.14 8.074 0.215 12.020-0.266 1.133-1.261 1.925-2.421 1.925h-1.365c-2.050 0-4.054-0.466-5.87-1.345-0.471 0.61-1.367 1.345-2.705 1.345h-11.672c-1.208 0-2.501-0.494-3.42-1.528-0.227-0.256-0.204-0.646 0.048-0.877 0.268-0.247 0.667-0.187 0.877 0.048 0.635 0.709 1.546 1.115 2.496 1.115h1.269c-1.106-1.473-1.533-3.395-1.062-5.216 0.811-3.132 3.375-4.411 5.225-4.676-0.87-1.802-1.521-3.712-1.927-5.684-3.576 2.062-5.991 5.537-6.677 9.651-0.050 0.301-0.331 0.566-0.715 0.511-0.323-0.046-0.57-0.365-0.511-0.715 1.030-6.053 5.061-9.338 7.662-10.738-0.229-1.555 0.004-3.154 0.705-4.62-1.174-0.893-1.884-2.297-1.884-3.79 0-2.624 2.135-4.759 4.759-4.759 1.056 0 2.068 0.347 2.897 0.985 1.412-0.82 3.041-1.267 4.759-1.267s3.347 0.447 4.759 1.267c0.829-0.638 1.84-0.985 2.897-0.985 2.624 0 4.759 2.135 4.759 4.759 0 1.493-0.709 2.897-1.884 3.79zM9.199 7.727l1.73-2.996c0.617-1.069 1.411-1.981 2.333-2.712-0.539-0.321-1.156-0.494-1.795-0.494-1.939 0-3.516 1.578-3.516 3.516-0 1.041 0.467 2.023 1.249 2.685zM17.885 29.613c-0.66-0.4-1.289-0.858-1.877-1.371-2.163-1.889-3.963-4.135-5.334-6.615-2.189 0.080-4.108 1.622-4.639 3.775-0.443 1.794 0.16 3.701 1.538 4.918h8.719c0.619 0 1.191-0.262 1.592-0.707zM24.867 30.32c0.524 0 0.717-0.538 0.568-0.875-1.526-3.442-3.738-6.506-6.538-9.066h-3.001c-2.056 0-3.961-0.749-5.419-2.074 1.356 3.437 3.528 6.538 6.348 9.001 2.226 1.944 5.082 3.014 8.042 3.014zM27.41 18.611c-1.405 1.133-3.169 1.767-5.061 1.767h-1.655c0.631 0.632 1.229 1.289 1.794 1.971 0.016-0.088 0.032-0.175 0.050-0.262 0.068-0.336 0.396-0.554 0.732-0.486s0.554 0.395 0.486 0.732c-0.093 0.461-0.158 0.928-0.197 1.393 1.18 1.618 2.187 3.359 3.012 5.213 0.187 0.42 0.21 0.883 0.078 1.309 0.391-0.138 0.696-0.468 0.796-0.895 0.826-3.522 0.812-7.215-0.034-10.743zM28.274 8.874l-2.034-3.522c-1.486-2.573-4.147-4.109-7.118-4.109s-5.632 1.536-7.118 4.11l-2.033 3.522c-1.237 2.142-1.237 4.7 0 6.841s3.451 3.421 5.925 3.421h6.453c2.473 0 4.688-1.279 5.925-3.421s1.237-4.699 0-6.841zM30.295 5.042c0-1.939-1.577-3.516-3.516-3.516-0.639 0-1.256 0.173-1.795 0.494 0.922 0.731 1.716 1.643 2.333 2.712l1.73 2.996c0.782-0.662 1.249-1.645 1.249-2.685z">
                                                                                        </path>
                                                                                    </symbol>
                                                                                    <symbol id="icon-line-testimonials"
                                                                                        viewBox="0 0 784 32">
                                                                                        <path fill="#bdbdbd"
                                                                                            style="fill: var(--color1, #bdbdbd)"
                                                                                            opacity="0.57"
                                                                                            d="M0 9.6h784v16h-784v-16z">
                                                                                        </path>
                                                                                        <path fill="#333"
                                                                                            style="fill: var(--color2, #333)"
                                                                                            d="M96 0h96v32h-96v-32z">
                                                                                        </path>
                                                                                    </symbol>
                                                                                </defs>
                                                                            </svg>

                                                                        </defs>
                                                                    </svg>

                                                                </defs>
                                                            </svg>

                                                        </symbol>
                                                    </defs>
                                                </svg>